<svg id="visual" viewBox="0 0 450 900" width="450" height="900" xmlns="http://www.w3.org/2000/svg" xmlns:xlink="http://www.w3.org/1999/xlink" version="1.1"><rect x="0" y="0" width="450" height="900" fill="#ffffff"></rect><defs><linearGradient id="grad1_0" x1="0%" y1="100%" x2="100%" y2="0%"><stop offset="30%" stop-color="#ffffff" stop-opacity="1"></stop><stop offset="70%" stop-color="#ffffff" stop-opacity="1"></stop></linearGradient></defs><defs><linearGradient id="grad2_0" x1="0%" y1="100%" x2="100%" y2="0%"><stop offset="30%" stop-color="#ffffff" stop-opacity="1"></stop><stop offset="70%" stop-color="#ffffff" stop-opacity="1"></stop></linearGradient></defs><g transform="translate(450, 900)"><path d="M-247.5 0C-235 -39.6 -222.6 -79.2 -203.5 -117.5C-184.4 -155.8 -158.8 -192.9 -123.8 -214.3C-88.7 -235.8 -44.4 -241.6 0 -247.5L0 0Z" fill="#9261e8"></path></g><g transform="translate(0, 0)"><path d="M247.5 0C242.4 45.6 237.3 91.3 214.3 123.7C191.4 156.2 150.7 175.6 112 194C73.3 212.4 36.7 230 0 247.5L0 0Z" fill="#9261e8"></path></g></svg>